<?xml version="1.0" encoding="utf-8" ?>
<svg viewBox="10 -40 220 300" baseProfile="full" height="236px" version="1.1" width="256px" xmlns="http://www.w3.org/2000/svg" xmlns:ev="http://www.w3.org/2001/xml-events" xmlns:xlink="http://www.w3.org/1999/xlink"><defs />
<path d="M 151,76 L 150,77 L 146,77 L 145,78 L 141,78 L 140,79 L 138,79 L 137,80 L 135,80 L 134,81 L 133,81 L 132,82 L 130,82 L 129,83 L 128,83 L 127,84 L 126,84 L 125,85 L 124,85 L 123,86 L 122,86 L 120,88 L 119,88 L 117,90 L 116,90 L 114,92 L 113,92 L 99,106 L 99,107 L 96,110 L 96,111 L 95,112 L 95,113 L 93,115 L 93,116 L 92,117 L 92,118 L 91,119 L 91,120 L 90,121 L 90,122 L 89,123 L 89,124 L 88,125 L 88,127 L 87,128 L 87,129 L 86,130 L 86,133 L 85,134 L 85,136 L 84,137 L 84,141 L 83,142 L 83,150 L 82,151 L 82,159 L 83,160 L 83,168 L 84,169 L 84,173 L 85,174 L 85,177 L 86,178 L 86,180 L 87,181 L 87,183 L 88,184 L 88,185 L 89,186 L 89,188 L 90,189 L 90,190 L 91,191 L 91,192 L 92,193 L 92,194 L 94,196 L 94,197 L 95,198 L 95,199 L 98,202 L 98,203 L 101,206 L 101,207 L 110,216 L 111,216 L 115,220 L 116,220 L 118,222 L 119,222 L 121,224 L 122,224 L 123,225 L 124,225 L 125,226 L 126,226 L 127,227 L 128,227 L 129,228 L 130,228 L 131,229 L 133,229 L 134,230 L 135,230 L 136,231 L 138,231 L 139,232 L 142,232 L 143,233 L 147,233 L 148,234 L 154,234 L 155,235 L 169,235 L 170,234 L 176,234 L 177,233 L 181,233 L 182,232 L 184,232 L 185,231 L 188,231 L 189,230 L 190,230 L 191,229 L 193,229 L 194,228 L 195,228 L 196,227 L 197,227 L 198,226 L 201,226 L 202,227 L 203,227 L 204,228 L 205,228 L 206,229 L 207,229 L 208,230 L 209,230 L 210,231 L 212,231 L 213,232 L 215,232 L 216,233 L 220,233 L 221,234 L 241,234 L 242,233 L 247,233 L 248,232 L 251,232 L 252,231 L 253,231 L 255,229 L 255,226 L 253,224 L 252,224 L 251,223 L 246,223 L 245,222 L 243,222 L 242,221 L 241,221 L 234,214 L 234,213 L 232,211 L 232,210 L 231,209 L 231,208 L 230,207 L 230,206 L 229,205 L 229,203 L 228,202 L 228,200 L 229,199 L 229,198 L 230,197 L 230,196 L 232,194 L 232,193 L 233,192 L 233,191 L 234,190 L 234,189 L 235,188 L 235,186 L 236,185 L 236,184 L 237,183 L 237,181 L 238,180 L 238,178 L 239,177 L 239,174 L 240,173 L 240,169 L 241,168 L 241,159 L 242,158 L 242,153 L 241,152 L 241,143 L 240,142 L 240,138 L 239,137 L 239,134 L 238,133 L 238,131 L 237,130 L 237,128 L 236,127 L 236,125 L 235,124 L 235,123 L 234,122 L 234,121 L 233,120 L 233,119 L 232,118 L 232,117 L 231,116 L 231,115 L 229,113 L 229,112 L 227,110 L 227,109 L 225,107 L 225,106 L 212,93 L 211,93 L 208,90 L 207,90 L 205,88 L 204,88 L 202,86 L 201,86 L 200,85 L 199,85 L 198,84 L 197,84 L 196,83 L 195,83 L 194,82 L 192,82 L 191,81 L 190,81 L 189,80 L 187,80 L 186,79 L 184,79 L 183,78 L 180,78 L 179,77 L 174,77 L 173,76 Z" fill="currentColor" />
<path d="M 86,0 L 85,1 L 79,1 L 78,2 L 74,2 L 73,3 L 70,3 L 69,4 L 67,4 L 66,5 L 65,5 L 64,6 L 62,6 L 61,7 L 60,7 L 59,8 L 58,8 L 57,9 L 56,9 L 55,10 L 54,10 L 53,11 L 52,11 L 50,13 L 49,13 L 47,15 L 46,15 L 42,19 L 41,19 L 32,28 L 32,29 L 29,32 L 29,33 L 27,35 L 27,36 L 25,38 L 25,39 L 23,41 L 23,42 L 22,43 L 22,44 L 21,45 L 21,46 L 20,47 L 20,49 L 19,50 L 19,51 L 18,52 L 18,54 L 17,55 L 17,57 L 16,58 L 16,61 L 15,62 L 15,66 L 14,67 L 14,76 L 13,77 L 13,82 L 14,83 L 14,92 L 15,93 L 15,97 L 16,98 L 16,101 L 17,102 L 17,104 L 18,105 L 18,107 L 19,108 L 19,110 L 20,111 L 20,112 L 21,113 L 21,114 L 22,115 L 22,116 L 23,117 L 23,118 L 24,119 L 24,120 L 26,122 L 26,123 L 27,124 L 27,127 L 26,128 L 26,129 L 25,130 L 25,131 L 24,132 L 24,133 L 23,134 L 23,135 L 22,136 L 22,137 L 19,140 L 19,141 L 17,143 L 16,143 L 13,146 L 12,146 L 11,147 L 8,147 L 7,148 L 3,148 L 2,149 L 1,149 L 1,150 L 0,151 L 0,153 L 1,154 L 1,155 L 2,155 L 3,156 L 5,156 L 6,157 L 10,157 L 11,158 L 19,158 L 20,159 L 29,159 L 30,158 L 36,158 L 37,157 L 41,157 L 42,156 L 44,156 L 45,155 L 46,155 L 47,154 L 48,154 L 49,153 L 50,153 L 51,152 L 52,152 L 54,150 L 56,150 L 57,151 L 58,151 L 59,152 L 60,152 L 61,153 L 63,153 L 64,154 L 65,153 L 65,152 L 66,151 L 66,149 L 67,148 L 67,146 L 66,146 L 65,145 L 63,145 L 62,144 L 61,144 L 60,143 L 59,143 L 57,141 L 52,141 L 48,145 L 47,145 L 46,146 L 45,146 L 44,147 L 43,147 L 42,148 L 40,148 L 39,149 L 36,149 L 35,150 L 27,150 L 26,151 L 24,151 L 22,149 L 28,143 L 28,142 L 29,141 L 29,140 L 31,138 L 31,137 L 32,136 L 32,135 L 33,134 L 33,132 L 34,131 L 34,130 L 35,129 L 35,127 L 36,126 L 36,123 L 35,122 L 35,121 L 33,119 L 33,118 L 31,116 L 31,115 L 30,114 L 30,113 L 29,112 L 29,111 L 28,110 L 28,109 L 27,108 L 27,106 L 26,105 L 26,104 L 25,103 L 25,101 L 24,100 L 24,97 L 23,96 L 23,92 L 22,91 L 22,69 L 23,68 L 23,64 L 24,63 L 24,60 L 25,59 L 25,57 L 26,56 L 26,54 L 27,53 L 27,52 L 28,51 L 28,49 L 30,47 L 30,46 L 31,45 L 31,44 L 32,43 L 32,42 L 34,40 L 34,39 L 37,36 L 37,35 L 48,24 L 49,24 L 52,21 L 53,21 L 55,19 L 56,19 L 58,17 L 59,17 L 60,16 L 61,16 L 62,15 L 63,15 L 64,14 L 66,14 L 67,13 L 68,13 L 69,12 L 71,12 L 72,11 L 75,11 L 76,10 L 79,10 L 80,9 L 87,9 L 88,8 L 99,8 L 100,9 L 106,9 L 107,10 L 110,10 L 111,11 L 114,11 L 115,12 L 117,12 L 118,13 L 119,13 L 120,14 L 122,14 L 123,15 L 124,15 L 125,16 L 126,16 L 127,17 L 128,17 L 130,19 L 131,19 L 132,20 L 133,20 L 136,23 L 137,23 L 150,36 L 150,37 L 152,39 L 152,40 L 154,42 L 154,43 L 156,45 L 156,46 L 157,47 L 157,48 L 158,49 L 158,50 L 159,51 L 159,53 L 160,54 L 160,56 L 161,57 L 161,59 L 162,60 L 162,62 L 163,62 L 164,61 L 167,61 L 168,60 L 170,60 L 170,58 L 169,57 L 169,55 L 168,54 L 168,52 L 167,51 L 167,50 L 166,49 L 166,47 L 165,46 L 165,45 L 164,44 L 164,43 L 163,42 L 163,41 L 161,39 L 161,38 L 160,37 L 160,36 L 158,34 L 158,33 L 154,29 L 154,28 L 144,18 L 143,18 L 140,15 L 139,15 L 137,13 L 136,13 L 134,11 L 133,11 L 132,10 L 131,10 L 130,9 L 129,9 L 128,8 L 127,8 L 126,7 L 125,7 L 124,6 L 122,6 L 121,5 L 120,5 L 119,4 L 117,4 L 116,3 L 113,3 L 112,2 L 108,2 L 107,1 L 101,1 L 100,0 Z" fill="currentColor" /></svg>